{"title":"The Slammin Salmon-AC3-5,1-DVDRip[Eng]2009","uid":5482372,"size":1464849484,"categoryP":"video","categoryS":"movies","magnet":"?xt=urn:btih:c38712eff8be52ed649926dfe4180ecc1e9670b4&amp;dn=The+Slammin+Salmon-AC3-5%2C1-DVDRip%5BEng%5D2009&amp;tr=udp%3A%2F%2Ftracker.openbittorrent.com%3A80&amp;tr=udp%3A%2F%2Fopen.demonii.com%3A1337&amp;tr=udp%3A%2F%2Ftracker.coppersurfer.tk%3A6969&amp;tr=udp%3A%2F%2Fexodus.desync.com%3A6969","seeders":0,"leechers":1,"uploader":"FatFreddy31","files":-1,"time":1270508389,"description":" &lt;a href=&quot;http://www.imdb.com/title/tt1135525/&quot; rel=&quot;nofollow&quot; target=&quot;_NEW&quot;&gt;http://www.imdb.com/title/tt1135525/&lt;/a&gt;\n &lt;a href=&quot;\nhttp://www.slamminmovie.com/&quot; rel=&quot;nofollow&quot; target=&quot;_NEW&quot;&gt;\nhttp://www.slamminmovie.com/&lt;/a&gt;\n\nUser Rating:7.0/10 - 1,039 votes\n\nComedy\n\nDirector:Kevin Heffernan\n\nCast:Jeff Chase/Carla Gallo/Jay Chandrasekhar/Paul Soter, and others.\n\nPlot:\nThe brutal former heavyweight boxing champion Cleon &quot;Slammin'&quot; Salmon (Duncan), now owner of a Miami restaurant, institutes a competition to see which waiter can earn the most money in one night: the winner stands to gain $10,000, while the loser will endure a beating at the hands of the champ....\n\nInfo:\n\nCovers included.\n\nSubtitles: Danish, Dutch, English, Spanish (srt).\n\nGeneral\nComplete name                    : The Slammin Salmon-AC3-5,1-DVDRip[Eng]2009.avi\nFormat                           : AVI\nFormat/Info                      : Audio Video Interleave\nFile size                        : 1.36 GiB\nDuration                         : 1h 38mn\nOverall bit rate                 : 1 986 Kbps\nWriting application              : VirtualDubMod 1.5.4.1 (build 2178/release)\nWriting library                  : VirtualDubMod build 2178/release\n\nVideo\nID                               : 0\nFormat                           : MPEG-4 Visual\nFormat profile                   : Simple@L3\nFormat settings, BVOP            : No\nFormat settings, QPel            : No\nFormat settings, GMC             : No warppoints\nFormat settings, Matrix          : Default (H.263)\nCodec ID                         : XVID\nCodec ID/Hint                    : XviD\nDuration                         : 1h 38mn\nBit rate                         : 1 529 Kbps\nWidth                            : 704 pixels\nHeight                           : 400 pixels\nDisplay aspect ratio             : 16:9\nFrame rate                       : 23.976 fps\nResolution                       : 24 bits\nColorimetry                      : 4:2:0\nScan type                        : Progressive\nBits/(Pixel*Frame)               : 0.226\nStream size                      : 1.05 GiB (77%)\nWriting library                  : XviD 1.1.2 (UTC 2006-11-01)\n\nAudio\nID                               : 1\nFormat                           : AC-3\nFormat/Info                      : Audio Coding 3\nCodec ID                         : 2000\nDuration                         : 1h 38mn\nBit rate mode                    : Constant\nBit rate                         : 448 Kbps\nChannel(s)                       : 6 channels\nChannel positions                : Front: L C R, Surround: L R, LFE\nSampling rate                    : 48.0 KHz\nStream size                      : 315 MiB (23%)\nAlignment                        : Split accross interleaves\nInterleave, duration             : 42 ms (1.00 video frame)\nInterleave, preload duration     : 500 ms\n\nEnjoy...","torrent":{"xt":"urn:btih:c38712eff8be52ed649926dfe4180ecc1e9670b4","amp;dn":"The+Slammin+Salmon-AC3-5%2C1-DVDRip%5BEng%5D2009","amp;tr":["udp%3A%2F%2Ftracker.openbittorrent.com%3A80","udp%3A%2F%2Fopen.demonii.com%3A1337","udp%3A%2F%2Ftracker.coppersurfer.tk%3A6969","udp%3A%2F%2Fexodus.desync.com%3A6969"],"infoHash":"c38712eff8be52ed649926dfe4180ecc1e9670b4","infoHashBuffer":{"type":"Buffer","data":[195,135,18,239,248,190,82,237,100,153,38,223,228,24,14,204,30,150,112,180]},"announce":[],"urlList":[]}}